<?xml version="1.0" encoding="utf-8"?>
<!-- Generator: Adobe Illustrator 22.1.0, SVG Export Plug-In . SVG Version: 6.00 Build 0)  -->
<svg version="1.1" id="Layer_1" xmlns="http://www.w3.org/2000/svg" xmlns:xlink="http://www.w3.org/1999/xlink" x="0px" y="0px"
	 width="24px" height="24px" viewBox="0 0 24 24" style="enable-background:new 0 0 24 24;" xml:space="preserve">
<style type="text/css">
	.st0{fill:#333333;}
	.st1{fill:none;}
</style>
<path class="st0" d="M20,5H4C2.9,5,2,5.9,2,7v10c0,1.1,0.9,2,2,2h16c1.1,0,2-0.9,2-2V7C22,5.9,21.1,5,20,5z M11,8h2v2h-2V8z M11,11
	h2v2h-2V11z M8,8h2v2H8V8z M8,11h2v2H8V11z M7,13H5v-2h2V13z M7,10H5V8h2V10z M16,17H8v-2h8V17z M16,13h-2v-2h2V13z M16,10h-2V8h2
	V10z M19,13h-2v-2h2V13z M19,10h-2V8h2V10z"/>
<path class="st1" d="M2,5h20v14H2V5z M2,5h20v14H2V5z"/>
</svg>
